<svg xmlns="http://www.w3.org/2000/svg" width="212.95" height="35" viewBox="0 0 212.95 35"><rect class="svg__rect" x="0" y="0" width="54.14" height="35" fill="#F7812D"/><rect class="svg__rect" x="52.14" y="0" width="160.81" height="35" fill="#E46C17"/><path class="svg__text" d="M13.95 18.19L13.95 18.19L13.95 17.39Q13.95 16.19 14.38 15.27Q14.80 14.35 15.60 13.85Q16.40 13.35 17.45 13.35L17.45 13.35Q18.86 13.35 19.73 14.12Q20.59 14.89 20.73 16.29L20.73 16.29L19.25 16.29Q19.14 15.37 18.71 14.96Q18.28 14.55 17.45 14.55L17.45 14.55Q16.48 14.55 15.97 15.26Q15.45 15.96 15.44 17.33L15.44 17.33L15.44 18.09Q15.44 19.47 15.93 20.20Q16.43 20.92 17.38 20.92L17.38 20.92Q18.25 20.92 18.69 20.53Q19.13 20.14 19.25 19.22L19.25 19.22L20.73 19.22Q20.60 20.59 19.72 21.35Q18.84 22.12 17.38 22.12L17.38 22.12Q16.36 22.12 15.59 21.63Q14.81 21.15 14.39 20.26Q13.97 19.37 13.95 18.19ZM26.81 18.61L24.57 18.61L24.57 17.31L26.81 17.31L26.81 14.93L28.19 14.93L28.19 17.31L30.42 17.31L30.42 18.61L28.19 18.61L28.19 21.14L26.81 21.14L26.81 18.61ZM36.48 18.61L34.24 18.61L34.24 17.31L36.48 17.31L36.48 14.93L37.87 14.93L37.87 17.31L40.09 17.31L40.09 18.61L37.87 18.61L37.87 21.14L36.48 21.14L36.48 18.61Z" fill="#FFFFFF"/><path class="svg__text" d="M68.71 22L66.33 22L66.33 13.60L70.17 13.60Q71.31 13.60 72.15 13.98Q72.99 14.35 73.45 15.06Q73.90 15.76 73.90 16.71L73.90 16.71Q73.90 17.66 73.45 18.35Q72.99 19.05 72.15 19.42Q71.31 19.80 70.17 19.80L70.17 19.80L68.71 19.80L68.71 22ZM68.71 15.47L68.71 17.93L70.03 17.93Q70.76 17.93 71.13 17.61Q71.50 17.29 71.50 16.71L71.50 16.71Q71.50 16.12 71.13 15.80Q70.76 15.47 70.03 15.47L70.03 15.47L68.71 15.47ZM81.03 22L78.66 22L78.66 13.60L82.50 13.60Q83.64 13.60 84.48 13.98Q85.32 14.35 85.78 15.06Q86.23 15.76 86.23 16.71L86.23 16.71Q86.23 17.62 85.80 18.30Q85.38 18.98 84.59 19.36L84.59 19.36L86.40 22L83.85 22L82.33 19.77L81.03 19.77L81.03 22ZM81.03 15.47L81.03 17.93L82.35 17.93Q83.09 17.93 83.46 17.61Q83.83 17.29 83.83 16.71L83.83 16.71Q83.83 16.12 83.46 15.79Q83.09 15.47 82.35 15.47L82.35 15.47L81.03 15.47ZM90.59 17.80L90.59 17.80Q90.59 16.55 91.20 15.55Q91.80 14.56 92.86 14.00Q93.93 13.43 95.26 13.43L95.26 13.43Q96.59 13.43 97.65 14.00Q98.71 14.56 99.32 15.55Q99.93 16.55 99.93 17.80L99.93 17.80Q99.93 19.05 99.32 20.04Q98.71 21.04 97.65 21.60Q96.59 22.17 95.26 22.17L95.26 22.17Q93.93 22.17 92.86 21.60Q91.80 21.04 91.20 20.04Q90.59 19.05 90.59 17.80ZM92.99 17.80L92.99 17.80Q92.99 18.51 93.29 19.05Q93.59 19.60 94.11 19.90Q94.62 20.20 95.26 20.20L95.26 20.20Q95.89 20.20 96.41 19.90Q96.93 19.60 97.22 19.05Q97.52 18.51 97.52 17.80L97.52 17.80Q97.52 17.09 97.22 16.54Q96.93 16 96.41 15.70Q95.89 15.40 95.26 15.40L95.26 15.40Q94.62 15.40 94.10 15.70Q93.59 16 93.29 16.54Q92.99 17.09 92.99 17.80ZM104.23 17.80L104.23 17.80Q104.23 16.54 104.82 15.54Q105.42 14.55 106.49 13.99Q107.56 13.43 108.90 13.43L108.90 13.43Q110.08 13.43 111.02 13.83Q111.95 14.22 112.58 14.97L112.58 14.97L111.06 16.33Q110.22 15.40 109.04 15.40L109.04 15.40Q109.03 15.40 109.03 15.40L109.03 15.40Q107.95 15.40 107.28 16.06Q106.62 16.71 106.62 17.80L106.62 17.80Q106.62 18.50 106.92 19.04Q107.23 19.59 107.77 19.89Q108.30 20.20 109.00 20.20L109.00 20.20Q109.69 20.20 110.28 19.93L110.28 19.93L110.28 17.62L112.38 17.62L112.38 21.10Q111.66 21.61 110.73 21.89Q109.79 22.17 108.86 22.17L108.86 22.17Q107.54 22.17 106.48 21.61Q105.42 21.05 104.82 20.05Q104.23 19.06 104.23 17.80ZM119.75 22L117.37 22L117.37 13.60L121.22 13.60Q122.36 13.60 123.20 13.98Q124.04 14.35 124.49 15.06Q124.95 15.76 124.95 16.71L124.95 16.71Q124.95 17.62 124.52 18.30Q124.10 18.98 123.30 19.36L123.30 19.36L125.11 22L122.57 22L121.05 19.77L119.75 19.77L119.75 22ZM119.75 15.47L119.75 17.93L121.07 17.93Q121.80 17.93 122.18 17.61Q122.55 17.29 122.55 16.71L122.55 16.71Q122.55 16.12 122.18 15.79Q121.80 15.47 121.07 15.47L121.07 15.47L119.75 15.47ZM131.16 22L128.73 22L132.44 13.60L134.78 13.60L138.50 22L136.03 22L135.37 20.37L131.82 20.37L131.16 22ZM133.59 15.93L132.51 18.61L134.67 18.61L133.59 15.93ZM144.85 22L142.65 22L142.65 13.60L144.61 13.60L147.56 18.45L150.45 13.60L152.40 13.60L152.42 22L150.24 22L150.22 17.55L148.05 21.17L147.00 21.17L144.85 17.67L144.85 22ZM159.78 22L157.58 22L157.58 13.60L159.54 13.60L162.49 18.45L165.37 13.60L167.33 13.60L167.35 22L165.17 22L165.15 17.55L162.98 21.17L161.93 21.17L159.78 17.67L159.78 22ZM174.89 22L172.51 22L172.51 13.60L174.89 13.60L174.89 22ZM182.40 22L180.06 22L180.06 13.60L182.02 13.60L185.73 18.07L185.73 13.60L188.06 13.60L188.06 22L186.11 22L182.40 17.52L182.40 22ZM192.79 17.80L192.79 17.80Q192.79 16.54 193.39 15.54Q193.99 14.55 195.06 13.99Q196.12 13.43 197.47 13.43L197.47 13.43Q198.64 13.43 199.58 13.83Q200.52 14.22 201.14 14.97L201.14 14.97L199.63 16.33Q198.78 15.40 197.61 15.40L197.61 15.40Q197.60 15.40 197.59 15.40L197.59 15.40Q196.51 15.40 195.85 16.06Q195.19 16.71 195.19 17.80L195.19 17.80Q195.19 18.50 195.49 19.04Q195.79 19.59 196.33 19.89Q196.87 20.20 197.57 20.20L197.57 20.20Q198.25 20.20 198.85 19.93L198.85 19.93L198.85 17.62L200.95 17.62L200.95 21.10Q200.23 21.61 199.29 21.89Q198.36 22.17 197.42 22.17L197.42 22.17Q196.10 22.17 195.04 21.61Q193.99 21.05 193.39 20.05Q192.79 19.06 192.79 17.80Z" fill="#FFFFFF" x="65.14"/></svg>