<svg xmlns="http://www.w3.org/2000/svg" width="286.58" height="35" viewBox="0 0 286.58 35"><rect class="svg__rect" x="0" y="0" width="104.11999999999999" height="35" fill="#31C4F3"/><rect class="svg__rect" x="102.11999999999999" y="0" width="184.45999999999998" height="35" fill="#389AD5"/><path class="svg__text" d="M13.95 18.19L13.95 18.19L13.95 17.39Q13.95 16.19 14.38 15.27Q14.80 14.35 15.60 13.85Q16.40 13.35 17.45 13.35L17.45 13.35Q18.86 13.35 19.73 14.12Q20.59 14.89 20.73 16.29L20.73 16.29L19.25 16.29Q19.14 15.37 18.71 14.96Q18.28 14.55 17.45 14.55L17.45 14.55Q16.48 14.55 15.97 15.26Q15.45 15.96 15.44 17.33L15.44 17.33L15.44 18.09Q15.44 19.47 15.93 20.20Q16.43 20.92 17.38 20.92L17.38 20.92Q18.25 20.92 18.69 20.53Q19.13 20.14 19.25 19.22L19.25 19.22L20.73 19.22Q20.60 20.59 19.72 21.35Q18.84 22.12 17.38 22.12L17.38 22.12Q16.36 22.12 15.59 21.63Q14.81 21.15 14.39 20.26Q13.97 19.37 13.95 18.19ZM24.77 18.00L24.77 18.00L24.77 17.52Q24.77 16.28 25.21 15.32Q25.65 14.37 26.46 13.86Q27.27 13.35 28.31 13.35Q29.35 13.35 30.16 13.85Q30.96 14.35 31.40 15.29Q31.84 16.23 31.85 17.48L31.85 17.48L31.85 17.96Q31.85 19.21 31.41 20.16Q30.98 21.10 30.18 21.61Q29.37 22.12 28.32 22.12L28.32 22.12Q27.28 22.12 26.47 21.61Q25.66 21.10 25.22 20.17Q24.78 19.23 24.77 18.00ZM26.25 17.46L26.25 17.96Q26.25 19.36 26.80 20.13Q27.35 20.90 28.32 20.90L28.32 20.90Q29.31 20.90 29.84 20.15Q30.37 19.40 30.37 17.96L30.37 17.96L30.37 17.51Q30.37 16.09 29.83 15.34Q29.29 14.58 28.31 14.58L28.31 14.58Q27.35 14.58 26.81 15.33Q26.26 16.09 26.25 17.46L26.25 17.46ZM38.77 22L36.31 22L36.31 13.47L38.83 13.47Q39.96 13.47 40.84 13.97Q41.72 14.48 42.20 15.40Q42.68 16.33 42.68 17.52L42.68 17.52L42.68 17.95Q42.68 19.16 42.19 20.08Q41.71 21.00 40.82 21.50Q39.92 22 38.77 22L38.77 22ZM37.80 14.66L37.80 20.82L38.76 20.82Q39.93 20.82 40.55 20.09Q41.18 19.36 41.19 17.99L41.19 17.99L41.19 17.52Q41.19 16.13 40.58 15.40Q39.98 14.66 38.83 14.66L38.83 14.66L37.80 14.66ZM52.72 22L47.14 22L47.14 13.47L52.68 13.47L52.68 14.66L48.62 14.66L48.62 17.02L52.13 17.02L52.13 18.19L48.62 18.19L48.62 20.82L52.72 20.82L52.72 22ZM56.48 19.42L56.48 19.42L57.96 19.42Q57.96 20.15 58.44 20.55Q58.92 20.95 59.82 20.95L59.82 20.95Q60.59 20.95 60.98 20.63Q61.37 20.32 61.37 19.80L61.37 19.80Q61.37 19.24 60.98 18.94Q60.58 18.63 59.55 18.32Q58.52 18.01 57.91 17.63L57.91 17.63Q56.74 16.90 56.74 15.72L56.74 15.72Q56.74 14.69 57.59 14.02Q58.43 13.35 59.77 13.35L59.77 13.35Q60.66 13.35 61.36 13.68Q62.05 14.01 62.45 14.61Q62.85 15.22 62.85 15.96L62.85 15.96L61.37 15.96Q61.37 15.29 60.95 14.91Q60.54 14.54 59.76 14.54L59.76 14.54Q59.03 14.54 58.63 14.85Q58.23 15.16 58.23 15.71L58.23 15.71Q58.23 16.18 58.66 16.50Q59.09 16.81 60.09 17.10Q61.09 17.40 61.69 17.78Q62.29 18.16 62.57 18.65Q62.86 19.13 62.86 19.79L62.86 19.79Q62.86 20.86 62.04 21.49Q61.22 22.12 59.82 22.12L59.82 22.12Q58.89 22.12 58.12 21.77Q57.34 21.43 56.91 20.83Q56.48 20.22 56.48 19.42ZM76.23 22L73.12 22L73.12 13.47L76.05 13.47Q77.49 13.47 78.25 14.05Q79.00 14.63 79.00 15.78L79.00 15.78Q79.00 16.36 78.69 16.83Q78.37 17.30 77.76 17.56L77.76 17.56Q78.45 17.75 78.83 18.26Q79.21 18.78 79.21 19.51L79.21 19.51Q79.21 20.71 78.44 21.36Q77.67 22 76.23 22L76.23 22ZM74.60 18.15L74.60 20.82L76.25 20.82Q76.95 20.82 77.34 20.47Q77.73 20.13 77.73 19.51L77.73 19.51Q77.73 18.18 76.37 18.15L76.37 18.15L74.60 18.15ZM74.60 14.66L74.60 17.06L76.06 17.06Q76.75 17.06 77.14 16.75Q77.53 16.43 77.53 15.86L77.53 15.86Q77.53 15.23 77.17 14.95Q76.81 14.66 76.05 14.66L76.05 14.66L74.60 14.66ZM85.72 18.86L82.85 13.47L84.50 13.47L86.46 17.51L88.43 13.47L90.07 13.47L87.21 18.86L87.21 22L85.72 22L85.72 18.86Z" fill="#FFFFFF"/><path class="svg__text" d="M118.66 22L116.31 22L116.31 13.60L118.66 13.60L118.66 17.09L121.92 13.60L124.53 13.60L121.10 17.32L124.71 22L121.95 22L119.55 18.95L118.66 19.90L118.66 22ZM131.20 22L128.82 22L128.82 13.60L132.66 13.60Q133.80 13.60 134.64 13.98Q135.48 14.35 135.94 15.06Q136.39 15.76 136.39 16.71L136.39 16.71Q136.39 17.62 135.97 18.30Q135.54 18.98 134.75 19.36L134.75 19.36L136.56 22L134.01 22L132.49 19.77L131.20 19.77L131.20 22ZM131.20 15.47L131.20 17.93L132.51 17.93Q133.25 17.93 133.62 17.61Q133.99 17.29 133.99 16.71L133.99 16.71Q133.99 16.12 133.62 15.79Q133.25 15.47 132.51 15.47L132.51 15.47L131.20 15.47ZM143.56 22L141.18 22L141.18 13.60L143.56 13.60L143.56 22ZM150.53 15.48L147.94 15.48L147.94 13.60L155.47 13.60L155.47 15.48L152.90 15.48L152.90 22L150.53 22L150.53 15.48ZM162.22 22L159.84 22L159.84 13.60L162.22 13.60L162.22 22ZM169.75 22L167.39 22L167.39 13.60L169.75 13.60L169.75 17.09L173.00 13.60L175.61 13.60L172.18 17.32L175.79 22L173.03 22L170.63 18.95L169.75 19.90L169.75 22ZM188.29 22L185.86 22L189.57 13.60L191.92 13.60L195.63 22L193.17 22L192.50 20.37L188.95 20.37L188.29 22ZM190.73 15.93L189.64 18.61L191.81 18.61L190.73 15.93ZM199.36 17.80L199.36 17.80Q199.36 16.54 199.96 15.54Q200.55 14.55 201.62 13.99Q202.69 13.43 204.03 13.43L204.03 13.43Q205.21 13.43 206.15 13.83Q207.09 14.22 207.71 14.97L207.71 14.97L206.20 16.33Q205.35 15.40 204.18 15.40L204.18 15.40Q204.16 15.40 204.16 15.40L204.16 15.40Q203.08 15.40 202.42 16.06Q201.76 16.71 201.76 17.80L201.76 17.80Q201.76 18.50 202.06 19.04Q202.36 19.59 202.90 19.89Q203.44 20.20 204.13 20.20L204.13 20.20Q204.82 20.20 205.42 19.93L205.42 19.93L205.42 17.62L207.51 17.62L207.51 21.10Q206.79 21.61 205.86 21.89Q204.93 22.17 203.99 22.17L203.99 22.17Q202.67 22.17 201.61 21.61Q200.55 21.05 199.96 20.05Q199.36 19.06 199.36 17.80ZM213.93 22L211.50 22L215.21 13.60L217.55 13.60L221.27 22L218.80 22L218.14 20.37L214.59 20.37L213.93 22ZM216.36 15.93L215.28 18.61L217.44 18.61L216.36 15.93ZM227.80 22L225.42 22L225.42 13.60L229.26 13.60Q230.41 13.60 231.25 13.98Q232.08 14.35 232.54 15.06Q233.00 15.76 233.00 16.71L233.00 16.71Q233.00 17.62 232.57 18.30Q232.14 18.98 231.35 19.36L231.35 19.36L233.16 22L230.62 22L229.09 19.77L227.80 19.77L227.80 22ZM227.80 15.47L227.80 17.93L229.12 17.93Q229.85 17.93 230.22 17.61Q230.59 17.29 230.59 16.71L230.59 16.71Q230.59 16.12 230.22 15.79Q229.85 15.47 229.12 15.47L229.12 15.47L227.80 15.47ZM239.86 22L237.14 13.60L239.59 13.60L241.28 18.96L243.05 13.60L245.24 13.60L246.93 19.01L248.69 13.60L250.96 13.60L248.24 22L245.69 22L244.09 16.89L242.41 22L239.86 22ZM256.89 22L254.47 22L258.18 13.60L260.52 13.60L264.23 22L261.77 22L261.10 20.37L257.55 20.37L256.89 22ZM259.33 15.93L258.25 18.61L260.41 18.61L259.33 15.93ZM274.77 22L268.39 22L268.39 13.60L270.77 13.60L270.77 20.11L274.77 20.11L274.77 22Z" fill="#FFFFFF" x="115.11999999999999"/></svg>