<svg xmlns="http://www.w3.org/2000/svg" width="126.6666693687439" height="35" viewBox="0 0 126.6666693687439 35">
  <rect width="25.333333492279053" height="35" fill="#31C4F3"/>
  <rect x="25.333333492279053" width="101.33333587646484" height="35" fill="#389AD5"/>
  <g transform="translate(6.6, 11) scale(0.032)">
    <path style="fill:#FFFFFF;" d="M347.445,0H34.555C15.471,0,0,15.471,0,34.555v312.889C0,366.529,15.471,382,34.555,382h312.889
      C366.529,382,382,366.529,382,347.444V34.555C382,15.471,366.529,0,347.445,0z M118.207,329.844
      c0,5.554-4.502,10.056-10.056,10.056H65.345c-5.554,0-10.056-4.502-10.056-10.056V150.403c0-5.554,4.502-10.056,10.056-10.056
      h42.806c5.554,0,10.056,4.502,10.056,10.056V329.844z M86.748,123.432c-22.459,0-40.666-18.207-40.666-40.666
      S64.289,42.1,86.748,42.1s40.666,18.207,40.666,40.666S109.208,123.432,86.748,123.432z M341.91,330.654
      c0,5.106-4.14,9.246-9.246,9.246H286.73c-5.106,0-9.246-4.14-9.246-9.246v-84.168c0-12.556,3.683-55.021-32.813-55.021
      c-28.309,0-34.051,29.066-35.204,42.11v97.079c0,5.106-4.139,9.246-9.246,9.246h-44.426c-5.106,0-9.246-4.14-9.246-9.246V149.593
      c0-5.106,4.14-9.246,9.246-9.246h44.426c5.106,0,9.246,4.14,9.246,9.246v15.655c10.497-15.753,26.097-27.912,59.312-27.912
      c73.552,0,73.131,68.716,73.131,106.472L341.91,330.654L341.91,330.654z"/>
  </g>
  <text x="76.00000143051147" y="21.5" font-size="12" font-family="'Montserrat', sans-serif" fill="#FFFFFF" text-anchor="middle" font-weight="900" letter-spacing="2">LINKEDIN</text>
</svg>
