<svg xmlns="http://www.w3.org/2000/svg" width="278.45" height="35" viewBox="0 0 278.45 35"><rect class="svg__rect" x="0" y="0" width="95.99" height="35" fill="#3C9AD5"/><rect class="svg__rect" x="93.99" y="0" width="184.45999999999998" height="35" fill="#005FAE"/><path class="svg__text" d="M15.69 22L14.22 22L14.22 13.47L16.14 13.47L18.60 20.01L21.06 13.47L22.97 13.47L22.97 22L21.49 22L21.49 19.19L21.64 15.43L19.12 22L18.06 22L15.55 15.43L15.69 19.19L15.69 22ZM28.49 22L26.95 22L30.17 13.47L31.50 13.47L34.73 22L33.18 22L32.49 20.01L29.18 20.01L28.49 22ZM30.83 15.28L29.60 18.82L32.07 18.82L30.83 15.28ZM41.14 22L38.69 22L38.69 13.47L41.21 13.47Q42.34 13.47 43.21 13.97Q44.09 14.48 44.57 15.40Q45.05 16.33 45.05 17.52L45.05 17.52L45.05 17.95Q45.05 19.16 44.57 20.08Q44.08 21.00 43.19 21.50Q42.30 22 41.14 22L41.14 22ZM40.17 14.66L40.17 20.82L41.14 20.82Q42.30 20.82 42.93 20.09Q43.55 19.36 43.56 17.99L43.56 17.99L43.56 17.52Q43.56 16.13 42.96 15.40Q42.35 14.66 41.21 14.66L41.21 14.66L40.17 14.66ZM55.09 22L49.51 22L49.51 13.47L55.05 13.47L55.05 14.66L51.00 14.66L51.00 17.02L54.50 17.02L54.50 18.19L51.00 18.19L51.00 20.82L55.09 20.82L55.09 22ZM68.38 22L65.26 22L65.26 13.47L68.19 13.47Q69.64 13.47 70.39 14.05Q71.15 14.63 71.15 15.78L71.15 15.78Q71.15 16.36 70.83 16.83Q70.51 17.30 69.90 17.56L69.90 17.56Q70.60 17.75 70.97 18.26Q71.35 18.78 71.35 19.51L71.35 19.51Q71.35 20.71 70.58 21.36Q69.81 22 68.38 22L68.38 22ZM66.75 18.15L66.75 20.82L68.39 20.82Q69.09 20.82 69.48 20.47Q69.88 20.13 69.88 19.51L69.88 19.51Q69.88 18.18 68.52 18.15L68.52 18.15L66.75 18.15ZM66.75 14.66L66.75 17.06L68.20 17.06Q68.89 17.06 69.28 16.75Q69.67 16.43 69.67 15.86L69.67 15.86Q69.67 15.23 69.31 14.95Q68.95 14.66 68.19 14.66L68.19 14.66L66.75 14.66ZM77.86 18.86L75.00 13.47L76.64 13.47L78.61 17.51L80.57 13.47L82.21 13.47L79.35 18.86L79.35 22L77.86 22L77.86 18.86Z" fill="#FFFFFF"/><path class="svg__text" d="M110.53 22L108.18 22L108.18 13.60L110.53 13.60L110.53 17.09L113.79 13.60L116.40 13.60L112.97 17.32L116.58 22L113.82 22L111.42 18.95L110.53 19.90L110.53 22ZM123.07 22L120.69 22L120.69 13.60L124.53 13.60Q125.67 13.60 126.51 13.98Q127.35 14.35 127.81 15.06Q128.26 15.76 128.26 16.71L128.26 16.71Q128.26 17.62 127.84 18.30Q127.41 18.98 126.62 19.36L126.62 19.36L128.43 22L125.88 22L124.36 19.77L123.07 19.77L123.07 22ZM123.07 15.47L123.07 17.93L124.38 17.93Q125.12 17.93 125.49 17.61Q125.86 17.29 125.86 16.71L125.86 16.71Q125.86 16.12 125.49 15.79Q125.12 15.47 124.38 15.47L124.38 15.47L123.07 15.47ZM135.43 22L133.05 22L133.05 13.60L135.43 13.60L135.43 22ZM142.40 15.48L139.81 15.48L139.81 13.60L147.34 13.60L147.34 15.48L144.77 15.48L144.77 22L142.40 22L142.40 15.48ZM154.09 22L151.71 22L151.71 13.60L154.09 13.60L154.09 22ZM161.62 22L159.26 22L159.26 13.60L161.62 13.60L161.62 17.09L164.87 13.60L167.48 13.60L164.05 17.32L167.66 22L164.90 22L162.50 18.95L161.62 19.90L161.62 22ZM180.16 22L177.73 22L181.44 13.60L183.79 13.60L187.50 22L185.04 22L184.37 20.37L180.82 20.37L180.16 22ZM182.60 15.93L181.51 18.61L183.68 18.61L182.60 15.93ZM191.23 17.80L191.23 17.80Q191.23 16.54 191.83 15.54Q192.42 14.55 193.49 13.99Q194.56 13.43 195.90 13.43L195.90 13.43Q197.08 13.43 198.02 13.83Q198.96 14.22 199.58 14.97L199.58 14.97L198.07 16.33Q197.22 15.40 196.05 15.40L196.05 15.40Q196.03 15.40 196.03 15.40L196.03 15.40Q194.95 15.40 194.29 16.06Q193.63 16.71 193.63 17.80L193.63 17.80Q193.63 18.50 193.93 19.04Q194.23 19.59 194.77 19.89Q195.31 20.20 196.00 20.20L196.00 20.20Q196.69 20.20 197.29 19.93L197.29 19.93L197.29 17.62L199.38 17.62L199.38 21.10Q198.66 21.61 197.73 21.89Q196.80 22.17 195.86 22.17L195.86 22.17Q194.54 22.17 193.48 21.61Q192.42 21.05 191.83 20.05Q191.23 19.06 191.23 17.80ZM205.80 22L203.37 22L207.08 13.60L209.42 13.60L213.14 22L210.67 22L210.01 20.37L206.46 20.37L205.80 22ZM208.23 15.93L207.15 18.61L209.31 18.61L208.23 15.93ZM219.67 22L217.29 22L217.29 13.60L221.13 13.60Q222.28 13.60 223.12 13.98Q223.95 14.35 224.41 15.06Q224.87 15.76 224.87 16.71L224.87 16.71Q224.87 17.62 224.44 18.30Q224.01 18.98 223.22 19.36L223.22 19.36L225.03 22L222.49 22L220.97 19.77L219.67 19.77L219.67 22ZM219.67 15.47L219.67 17.93L220.99 17.93Q221.72 17.93 222.09 17.61Q222.47 17.29 222.47 16.71L222.47 16.71Q222.47 16.12 222.09 15.79Q221.72 15.47 220.99 15.47L220.99 15.47L219.67 15.47ZM231.73 22L229.01 13.60L231.46 13.60L233.15 18.96L234.92 13.60L237.11 13.60L238.80 19.01L240.56 13.60L242.83 13.60L240.11 22L237.56 22L235.96 16.89L234.28 22L231.73 22ZM248.76 22L246.34 22L250.05 13.60L252.39 13.60L256.10 22L253.64 22L252.97 20.37L249.42 20.37L248.76 22ZM251.20 15.93L250.12 18.61L252.28 18.61L251.20 15.93ZM266.64 22L260.26 22L260.26 13.60L262.64 13.60L262.64 20.11L266.64 20.11L266.64 22Z" fill="#FFFFFF" x="106.99"/></svg>