<svg xmlns="http://www.w3.org/2000/svg" width="304.27" height="35" viewBox="0 0 304.27 35"><rect class="svg__rect" x="0" y="0" width="121.81" height="35" fill="#3C9AD5"/><rect class="svg__rect" x="119.81" y="0" width="184.45999999999998" height="35" fill="#005FAE"/><path class="svg__text" d="M15.69 22L14.22 22L14.22 13.47L16.14 13.47L18.60 20.01L21.06 13.47L22.97 13.47L22.97 22L21.49 22L21.49 19.19L21.64 15.43L19.12 22L18.06 22L15.55 15.43L15.69 19.19L15.69 22ZM29.75 18.86L26.89 13.47L28.53 13.47L30.49 17.51L32.46 13.47L34.10 13.47L31.24 18.86L31.24 22L29.75 22L29.75 18.86ZM45.47 22L43.99 22L43.99 13.47L45.47 13.47L49.29 19.54L49.29 13.47L50.76 13.47L50.76 22L49.27 22L45.47 15.95L45.47 22ZM56.28 22L54.73 22L57.96 13.47L59.29 13.47L62.52 22L60.97 22L60.27 20.01L56.97 20.01L56.28 22ZM58.62 15.28L57.38 18.82L59.86 18.82L58.62 15.28ZM67.95 22L66.47 22L66.47 13.47L68.39 13.47L70.85 20.01L73.31 13.47L75.22 13.47L75.22 22L73.75 22L73.75 19.19L73.89 15.43L71.38 22L70.31 22L67.80 15.43L67.95 19.19L67.95 22ZM85.54 22L79.97 22L79.97 13.47L85.50 13.47L85.50 14.66L81.45 14.66L81.45 17.02L84.95 17.02L84.95 18.19L81.45 18.19L81.45 20.82L85.54 20.82L85.54 22ZM97.28 22L95.80 22L95.80 13.47L97.28 13.47L97.28 22ZM101.66 19.42L101.66 19.42L103.14 19.42Q103.14 20.15 103.62 20.55Q104.10 20.95 105.00 20.95L105.00 20.95Q105.77 20.95 106.16 20.63Q106.55 20.32 106.55 19.80L106.55 19.80Q106.55 19.24 106.15 18.94Q105.76 18.63 104.73 18.32Q103.70 18.01 103.09 17.63L103.09 17.63Q101.92 16.90 101.92 15.72L101.92 15.72Q101.92 14.69 102.76 14.02Q103.60 13.35 104.94 13.35L104.94 13.35Q105.83 13.35 106.53 13.68Q107.23 14.01 107.63 14.61Q108.03 15.22 108.03 15.96L108.03 15.96L106.55 15.96Q106.55 15.29 106.13 14.91Q105.71 14.54 104.93 14.54L104.93 14.54Q104.21 14.54 103.80 14.85Q103.40 15.16 103.40 15.71L103.40 15.71Q103.40 16.18 103.84 16.50Q104.27 16.81 105.27 17.10Q106.26 17.40 106.87 17.78Q107.47 18.16 107.75 18.65Q108.03 19.13 108.03 19.79L108.03 19.79Q108.03 20.86 107.21 21.49Q106.40 22.12 105.00 22.12L105.00 22.12Q104.07 22.12 103.29 21.77Q102.52 21.43 102.09 20.83Q101.66 20.22 101.66 19.42Z" fill="#FFFFFF"/><path class="svg__text" d="M136.35 22L134.00 22L134.00 13.60L136.35 13.60L136.35 17.09L139.61 13.60L142.22 13.60L138.79 17.32L142.40 22L139.64 22L137.24 18.95L136.35 19.90L136.35 22ZM148.89 22L146.51 22L146.51 13.60L150.35 13.60Q151.49 13.60 152.33 13.98Q153.17 14.35 153.63 15.06Q154.08 15.76 154.08 16.71L154.08 16.71Q154.08 17.62 153.66 18.30Q153.23 18.98 152.44 19.36L152.44 19.36L154.25 22L151.70 22L150.18 19.77L148.89 19.77L148.89 22ZM148.89 15.47L148.89 17.93L150.20 17.93Q150.94 17.93 151.31 17.61Q151.68 17.29 151.68 16.71L151.68 16.71Q151.68 16.12 151.31 15.79Q150.94 15.47 150.20 15.47L150.20 15.47L148.89 15.47ZM161.25 22L158.87 22L158.87 13.60L161.25 13.60L161.25 22ZM168.22 15.48L165.63 15.48L165.63 13.60L173.16 13.60L173.16 15.48L170.59 15.48L170.59 22L168.22 22L168.22 15.48ZM179.91 22L177.53 22L177.53 13.60L179.91 13.60L179.91 22ZM187.44 22L185.08 22L185.08 13.60L187.44 13.60L187.44 17.09L190.69 13.60L193.30 13.60L189.87 17.32L193.48 22L190.72 22L188.32 18.95L187.44 19.90L187.44 22ZM205.98 22L203.55 22L207.26 13.60L209.61 13.60L213.32 22L210.86 22L210.19 20.37L206.64 20.37L205.98 22ZM208.42 15.93L207.33 18.61L209.50 18.61L208.42 15.93ZM217.05 17.80L217.05 17.80Q217.05 16.54 217.65 15.54Q218.24 14.55 219.31 13.99Q220.38 13.43 221.72 13.43L221.72 13.43Q222.90 13.43 223.84 13.83Q224.78 14.22 225.40 14.97L225.40 14.97L223.89 16.33Q223.04 15.40 221.87 15.40L221.87 15.40Q221.85 15.40 221.85 15.40L221.85 15.40Q220.77 15.40 220.11 16.06Q219.45 16.71 219.45 17.80L219.45 17.80Q219.45 18.50 219.75 19.04Q220.05 19.59 220.59 19.89Q221.13 20.20 221.82 20.20L221.82 20.20Q222.51 20.20 223.11 19.93L223.11 19.93L223.11 17.62L225.20 17.62L225.20 21.10Q224.48 21.61 223.55 21.89Q222.62 22.17 221.68 22.17L221.68 22.17Q220.36 22.17 219.30 21.61Q218.24 21.05 217.65 20.05Q217.05 19.06 217.05 17.80ZM231.62 22L229.19 22L232.90 13.60L235.24 13.60L238.96 22L236.49 22L235.83 20.37L232.28 20.37L231.62 22ZM234.05 15.93L232.97 18.61L235.13 18.61L234.05 15.93ZM245.49 22L243.11 22L243.11 13.60L246.95 13.60Q248.10 13.60 248.94 13.98Q249.77 14.35 250.23 15.06Q250.69 15.76 250.69 16.71L250.69 16.71Q250.69 17.62 250.26 18.30Q249.83 18.98 249.04 19.36L249.04 19.36L250.85 22L248.31 22L246.78 19.77L245.49 19.77L245.49 22ZM245.49 15.47L245.49 17.93L246.81 17.93Q247.54 17.93 247.91 17.61Q248.28 17.29 248.28 16.71L248.28 16.71Q248.28 16.12 247.91 15.79Q247.54 15.47 246.81 15.47L246.81 15.47L245.49 15.47ZM257.55 22L254.83 13.60L257.28 13.60L258.97 18.96L260.74 13.60L262.93 13.60L264.62 19.01L266.38 13.60L268.65 13.60L265.93 22L263.38 22L261.78 16.89L260.10 22L257.55 22ZM274.58 22L272.16 22L275.87 13.60L278.21 13.60L281.92 22L279.46 22L278.79 20.37L275.24 20.37L274.58 22ZM277.02 15.93L275.94 18.61L278.10 18.61L277.02 15.93ZM292.46 22L286.08 22L286.08 13.60L288.46 13.60L288.46 20.11L292.46 20.11L292.46 22Z" fill="#FFFFFF" x="132.81"/></svg>