<svg xmlns="http://www.w3.org/2000/svg" width="445.48" height="35" viewBox="0 0 445.48 35"><rect class="svg__rect" x="0" y="0" width="162.21" height="35" fill="#FF0000"/><rect class="svg__rect" x="160.21" y="0" width="285.27" height="35" fill="#C10000"/><path class="svg__text" d="M13.78 19.42L13.78 19.42L15.27 19.42Q15.27 20.15 15.75 20.55Q16.23 20.95 17.12 20.95L17.12 20.95Q17.90 20.95 18.29 20.63Q18.68 20.32 18.68 19.80L18.68 19.80Q18.68 19.24 18.28 18.94Q17.89 18.63 16.85 18.32Q15.82 18.01 15.21 17.63L15.21 17.63Q14.05 16.90 14.05 15.72L14.05 15.72Q14.05 14.69 14.89 14.02Q15.73 13.35 17.07 13.35L17.07 13.35Q17.96 13.35 18.66 13.68Q19.36 14.01 19.75 14.61Q20.15 15.22 20.15 15.96L20.15 15.96L18.68 15.96Q18.68 15.29 18.26 14.91Q17.84 14.54 17.06 14.54L17.06 14.54Q16.33 14.54 15.93 14.85Q15.53 15.16 15.53 15.71L15.53 15.71Q15.53 16.18 15.96 16.50Q16.40 16.81 17.39 17.10Q18.39 17.40 18.99 17.78Q19.60 18.16 19.88 18.65Q20.16 19.13 20.16 19.79L20.16 19.79Q20.16 20.86 19.34 21.49Q18.52 22.12 17.12 22.12L17.12 22.12Q16.20 22.12 15.42 21.77Q14.64 21.43 14.21 20.83Q13.78 20.22 13.78 19.42ZM26.01 22L24.54 22L24.54 13.47L26.01 13.47L26.01 22ZM32.30 22L30.82 22L30.82 13.47L32.74 13.47L35.21 20.01L37.66 13.47L39.58 13.47L39.58 22L38.10 22L38.10 19.19L38.25 15.43L35.73 22L34.67 22L32.15 15.43L32.30 19.19L32.30 22ZM44.18 19.16L44.18 19.16L44.18 13.47L45.66 13.47L45.66 19.18Q45.66 20.03 46.09 20.48Q46.53 20.93 47.37 20.93L47.37 20.93Q49.08 20.93 49.08 19.13L49.08 19.13L49.08 13.47L50.56 13.47L50.56 19.17Q50.56 20.53 49.69 21.32Q48.82 22.12 47.37 22.12L47.37 22.12Q45.90 22.12 45.04 21.33Q44.18 20.55 44.18 19.16ZM60.48 22L55.13 22L55.13 13.47L56.61 13.47L56.61 20.82L60.48 20.82L60.48 22ZM65.39 22L63.85 22L67.07 13.47L68.40 13.47L71.63 22L70.08 22L69.38 20.01L66.08 20.01L65.39 22ZM67.73 15.28L66.49 18.82L68.97 18.82L67.73 15.28ZM77.26 14.66L74.63 14.66L74.63 13.47L81.39 13.47L81.39 14.66L78.73 14.66L78.73 22L77.26 22L77.26 14.66ZM90.73 22L85.15 22L85.15 13.47L90.69 13.47L90.69 14.66L86.63 14.66L86.63 17.02L90.14 17.02L90.14 18.19L86.63 18.19L86.63 20.82L90.73 20.82L90.73 22ZM97.38 22L94.92 22L94.92 13.47L97.44 13.47Q98.57 13.47 99.45 13.97Q100.33 14.48 100.81 15.40Q101.29 16.33 101.29 17.52L101.29 17.52L101.29 17.95Q101.29 19.16 100.80 20.08Q100.32 21.00 99.43 21.50Q98.53 22 97.38 22L97.38 22ZM96.41 14.66L96.41 20.82L97.37 20.82Q98.54 20.82 99.16 20.09Q99.79 19.36 99.80 17.99L99.80 17.99L99.80 17.52Q99.80 16.13 99.20 15.40Q98.59 14.66 97.44 14.66L97.44 14.66L96.41 14.66ZM113.11 22L111.14 13.47L112.61 13.47L113.94 19.88L115.57 13.47L116.81 13.47L118.42 19.89L119.73 13.47L121.20 13.47L119.23 22L117.82 22L116.19 15.77L114.54 22L113.11 22ZM126.84 22L125.36 22L125.36 13.47L126.84 13.47L126.84 22ZM133.33 14.66L130.70 14.66L130.70 13.47L137.46 13.47L137.46 14.66L134.80 14.66L134.80 22L133.33 22L133.33 14.66ZM142.70 22L141.22 22L141.22 13.47L142.70 13.47L142.70 17.02L146.52 17.02L146.52 13.47L147.99 13.47L147.99 22L146.52 22L146.52 18.21L142.70 18.21L142.70 22Z" fill="#FFFFFF"/><path class="svg__text" d="M176.73 22L174.40 22L174.40 13.60L176.35 13.60L180.06 18.07L180.06 13.60L182.39 13.60L182.39 22L180.44 22L176.73 17.52L176.73 22ZM194.30 22L187.55 22L187.55 13.60L194.14 13.60L194.14 15.44L189.91 15.44L189.91 16.85L193.64 16.85L193.64 18.63L189.91 18.63L189.91 20.17L194.30 20.17L194.30 22ZM200.89 15.48L198.31 15.48L198.31 13.60L205.83 13.60L205.83 15.48L203.27 15.48L203.27 22L200.89 22L200.89 15.48ZM212.28 22L209.56 13.60L212.01 13.60L213.70 18.96L215.47 13.60L217.66 13.60L219.35 19.01L221.11 13.60L223.38 13.60L220.66 22L218.11 22L216.51 16.89L214.83 22L212.28 22ZM227.47 17.80L227.47 17.80Q227.47 16.55 228.07 15.55Q228.67 14.56 229.74 14.00Q230.80 13.43 232.13 13.43L232.13 13.43Q233.46 13.43 234.52 14.00Q235.59 14.56 236.19 15.55Q236.80 16.55 236.80 17.80L236.80 17.80Q236.80 19.05 236.19 20.04Q235.59 21.04 234.53 21.60Q233.47 22.17 232.13 22.17L232.13 22.17Q230.80 22.17 229.74 21.60Q228.67 21.04 228.07 20.04Q227.47 19.05 227.47 17.80ZM229.86 17.80L229.86 17.80Q229.86 18.51 230.16 19.05Q230.47 19.60 230.98 19.90Q231.50 20.20 232.13 20.20L232.13 20.20Q232.77 20.20 233.28 19.90Q233.80 19.60 234.10 19.05Q234.40 18.51 234.40 17.80L234.40 17.80Q234.40 17.09 234.10 16.54Q233.80 16 233.28 15.70Q232.77 15.40 232.13 15.40L232.13 15.40Q231.49 15.40 230.98 15.70Q230.47 16 230.16 16.54Q229.86 17.09 229.86 17.80ZM243.91 22L241.53 22L241.53 13.60L245.37 13.60Q246.52 13.60 247.35 13.98Q248.19 14.35 248.65 15.06Q249.10 15.76 249.10 16.71L249.10 16.71Q249.10 17.62 248.68 18.30Q248.25 18.98 247.46 19.36L247.46 19.36L249.27 22L246.73 22L245.20 19.77L243.91 19.77L243.91 22ZM243.91 15.47L243.91 17.93L245.23 17.93Q245.96 17.93 246.33 17.61Q246.70 17.29 246.70 16.71L246.70 16.71Q246.70 16.12 246.33 15.79Q245.96 15.47 245.23 15.47L245.23 15.47L243.91 15.47ZM256.25 22L253.89 22L253.89 13.60L256.25 13.60L256.25 17.09L259.50 13.60L262.11 13.60L258.69 17.32L262.29 22L259.53 22L257.13 18.95L256.25 19.90L256.25 22ZM272.79 21.24L272.79 21.24L273.57 19.49Q274.13 19.86 274.87 20.09Q275.62 20.32 276.34 20.32L276.34 20.32Q277.70 20.32 277.71 19.64L277.71 19.64Q277.71 19.28 277.32 19.11Q276.93 18.93 276.06 18.74L276.06 18.74Q275.11 18.53 274.48 18.30Q273.84 18.06 273.39 17.55Q272.94 17.03 272.94 16.16L272.94 16.16Q272.94 15.39 273.35 14.77Q273.77 14.15 274.61 13.79Q275.44 13.43 276.65 13.43L276.65 13.43Q277.48 13.43 278.28 13.62Q279.09 13.80 279.70 14.17L279.70 14.17L278.97 15.93Q277.77 15.28 276.64 15.28L276.64 15.28Q275.93 15.28 275.61 15.49Q275.28 15.70 275.28 16.04L275.28 16.04Q275.28 16.37 275.67 16.54Q276.05 16.71 276.90 16.89L276.90 16.89Q277.86 17.10 278.49 17.33Q279.12 17.56 279.59 18.07Q280.05 18.58 280.05 19.46L280.05 19.46Q280.05 20.21 279.63 20.83Q279.21 21.44 278.37 21.80Q277.53 22.17 276.33 22.17L276.33 22.17Q275.31 22.17 274.35 21.92Q273.39 21.67 272.79 21.24ZM287.00 22L284.62 22L284.62 13.60L287.00 13.60L287.00 22ZM294.37 22L292.18 22L292.18 13.60L294.13 13.60L297.09 18.45L299.97 13.60L301.92 13.60L301.94 22L299.77 22L299.74 17.55L297.58 21.17L296.52 21.17L294.37 17.67L294.37 22ZM307.04 18.26L307.04 18.26L307.04 13.60L309.42 13.60L309.42 18.19Q309.42 20.20 311.01 20.20L311.01 20.20Q312.59 20.20 312.59 18.19L312.59 18.19L312.59 13.60L314.94 13.60L314.94 18.26Q314.94 20.13 313.89 21.15Q312.85 22.17 310.99 22.17L310.99 22.17Q309.11 22.17 308.07 21.15Q307.04 20.13 307.04 18.26ZM326.41 22L320.02 22L320.02 13.60L322.40 13.60L322.40 20.11L326.41 20.11L326.41 22ZM332.24 22L329.82 22L333.53 13.60L335.87 13.60L339.59 22L337.12 22L336.46 20.37L332.91 20.37L332.24 22ZM334.68 15.93L333.60 18.61L335.76 18.61L334.68 15.93ZM345.53 15.48L342.95 15.48L342.95 13.60L350.47 13.60L350.47 15.48L347.91 15.48L347.91 22L345.53 22L345.53 15.48ZM354.42 17.80L354.42 17.80Q354.42 16.55 355.02 15.55Q355.62 14.56 356.69 14.00Q357.75 13.43 359.08 13.43L359.08 13.43Q360.41 13.43 361.47 14.00Q362.54 14.56 363.14 15.55Q363.75 16.55 363.75 17.80L363.75 17.80Q363.75 19.05 363.14 20.04Q362.54 21.04 361.48 21.60Q360.42 22.17 359.08 22.17L359.08 22.17Q357.75 22.17 356.69 21.60Q355.62 21.04 355.02 20.04Q354.42 19.05 354.42 17.80ZM356.81 17.80L356.81 17.80Q356.81 18.51 357.11 19.05Q357.42 19.60 357.93 19.90Q358.45 20.20 359.08 20.20L359.08 20.20Q359.72 20.20 360.23 19.90Q360.75 19.60 361.05 19.05Q361.35 18.51 361.35 17.80L361.35 17.80Q361.35 17.09 361.05 16.54Q360.75 16 360.23 15.70Q359.72 15.40 359.08 15.40L359.08 15.40Q358.44 15.40 357.93 15.70Q357.42 16 357.11 16.54Q356.81 17.09 356.81 17.80ZM370.86 22L368.48 22L368.48 13.60L372.32 13.60Q373.46 13.60 374.30 13.98Q375.14 14.35 375.60 15.06Q376.05 15.76 376.05 16.71L376.05 16.71Q376.05 17.62 375.63 18.30Q375.20 18.98 374.41 19.36L374.41 19.36L376.22 22L373.68 22L372.15 19.77L370.86 19.77L370.86 22ZM370.86 15.47L370.86 17.93L372.18 17.93Q372.91 17.93 373.28 17.61Q373.65 17.29 373.65 16.71L373.65 16.71Q373.65 16.12 373.28 15.79Q372.91 15.47 372.18 15.47L372.18 15.47L370.86 15.47ZM387.70 18.71L387.70 18.71Q387.70 17.07 388.10 15.62Q388.50 14.18 389.24 13.09L389.24 13.09L391.43 13.09Q390.65 14.48 390.29 15.84Q389.93 17.20 389.93 18.71L389.93 18.71Q389.93 20.22 390.29 21.59Q390.65 22.95 391.43 24.33L391.43 24.33L389.24 24.33Q388.50 23.25 388.10 21.80Q387.70 20.35 387.70 18.71ZM398.06 22L395.72 22L395.72 13.60L397.68 13.60L401.39 18.07L401.39 13.60L403.72 13.60L403.72 22L401.77 22L398.06 17.52L398.06 22ZM408.29 21.24L408.29 21.24L409.07 19.49Q409.63 19.86 410.38 20.09Q411.12 20.32 411.84 20.32L411.84 20.32Q413.21 20.32 413.21 19.64L413.21 19.64Q413.21 19.28 412.82 19.11Q412.44 18.93 411.57 18.74L411.57 18.74Q410.62 18.53 409.98 18.30Q409.35 18.06 408.89 17.55Q408.44 17.03 408.44 16.16L408.44 16.16Q408.44 15.39 408.86 14.77Q409.28 14.15 410.11 13.79Q410.95 13.43 412.15 13.43L412.15 13.43Q412.98 13.43 413.79 13.62Q414.59 13.80 415.21 14.17L415.21 14.17L414.47 15.93Q413.27 15.28 412.14 15.28L412.14 15.28Q411.43 15.28 411.11 15.49Q410.79 15.70 410.79 16.04L410.79 16.04Q410.79 16.37 411.17 16.54Q411.56 16.71 412.41 16.89L412.41 16.89Q413.37 17.10 414.00 17.33Q414.63 17.56 415.09 18.07Q415.55 18.58 415.55 19.46L415.55 19.46Q415.55 20.21 415.13 20.83Q414.71 21.44 413.87 21.80Q413.03 22.17 411.83 22.17L411.83 22.17Q410.81 22.17 409.85 21.92Q408.89 21.67 408.29 21.24ZM420.98 16.17L419.22 15.19Q419.71 14.37 420.60 13.90Q421.49 13.43 422.70 13.43L422.70 13.43Q423.66 13.43 424.40 13.74Q425.13 14.05 425.55 14.64Q425.96 15.22 425.96 15.99L425.96 15.99Q425.96 16.67 425.67 17.28Q425.37 17.89 424.53 18.65L424.53 18.65L422.95 20.11L426.19 20.11L426.19 22L419.65 22L419.65 20.51L422.79 17.57Q423.25 17.14 423.41 16.83Q423.56 16.53 423.56 16.22L423.56 16.22Q423.56 15.81 423.29 15.58Q423.01 15.35 422.48 15.35L422.48 15.35Q422.02 15.35 421.63 15.56Q421.24 15.77 420.98 16.17L420.98 16.17ZM432.12 24.33L429.94 24.33Q430.72 22.94 431.08 21.58Q431.44 20.22 431.44 18.71L431.44 18.71Q431.44 17.20 431.08 15.84Q430.72 14.48 429.94 13.09L429.94 13.09L432.12 13.09Q432.87 14.17 433.27 15.62Q433.67 17.07 433.67 18.71L433.67 18.71Q433.67 20.36 433.27 21.80Q432.87 23.25 432.12 24.33L432.12 24.33Z" fill="#FFFFFF" x="173.21"/></svg>