<svg xmlns="http://www.w3.org/2000/svg" width="333.93" height="35" viewBox="0 0 333.93 35"><rect class="svg__rect" x="0" y="0" width="162.21" height="35" fill="#FF0000"/><rect class="svg__rect" x="160.21" y="0" width="173.72" height="35" fill="#C10000"/><path class="svg__text" d="M13.78 19.42L13.78 19.42L15.27 19.42Q15.27 20.15 15.75 20.55Q16.23 20.95 17.12 20.95L17.12 20.95Q17.90 20.95 18.29 20.63Q18.68 20.32 18.68 19.80L18.68 19.80Q18.68 19.24 18.28 18.94Q17.89 18.63 16.85 18.32Q15.82 18.01 15.21 17.63L15.21 17.63Q14.05 16.90 14.05 15.72L14.05 15.72Q14.05 14.69 14.89 14.02Q15.73 13.35 17.07 13.35L17.07 13.35Q17.96 13.35 18.66 13.68Q19.36 14.01 19.75 14.61Q20.15 15.22 20.15 15.96L20.15 15.96L18.68 15.96Q18.68 15.29 18.26 14.91Q17.84 14.54 17.06 14.54L17.06 14.54Q16.33 14.54 15.93 14.85Q15.53 15.16 15.53 15.71L15.53 15.71Q15.53 16.18 15.96 16.50Q16.40 16.81 17.39 17.10Q18.39 17.40 18.99 17.78Q19.60 18.16 19.88 18.65Q20.16 19.13 20.16 19.79L20.16 19.79Q20.16 20.86 19.34 21.49Q18.52 22.12 17.12 22.12L17.12 22.12Q16.20 22.12 15.42 21.77Q14.64 21.43 14.21 20.83Q13.78 20.22 13.78 19.42ZM26.01 22L24.54 22L24.54 13.47L26.01 13.47L26.01 22ZM32.30 22L30.82 22L30.82 13.47L32.74 13.47L35.21 20.01L37.66 13.47L39.58 13.47L39.58 22L38.10 22L38.10 19.19L38.25 15.43L35.73 22L34.67 22L32.15 15.43L32.30 19.19L32.30 22ZM44.18 19.16L44.18 19.16L44.18 13.47L45.66 13.47L45.66 19.18Q45.66 20.03 46.09 20.48Q46.53 20.93 47.37 20.93L47.37 20.93Q49.08 20.93 49.08 19.13L49.08 19.13L49.08 13.47L50.56 13.47L50.56 19.17Q50.56 20.53 49.69 21.32Q48.82 22.12 47.37 22.12L47.37 22.12Q45.90 22.12 45.04 21.33Q44.18 20.55 44.18 19.16ZM60.48 22L55.13 22L55.13 13.47L56.61 13.47L56.61 20.82L60.48 20.82L60.48 22ZM65.39 22L63.85 22L67.07 13.47L68.40 13.47L71.63 22L70.08 22L69.38 20.01L66.08 20.01L65.39 22ZM67.73 15.28L66.49 18.82L68.97 18.82L67.73 15.28ZM77.26 14.66L74.63 14.66L74.63 13.47L81.39 13.47L81.39 14.66L78.73 14.66L78.73 22L77.26 22L77.26 14.66ZM90.73 22L85.15 22L85.15 13.47L90.69 13.47L90.69 14.66L86.63 14.66L86.63 17.02L90.14 17.02L90.14 18.19L86.63 18.19L86.63 20.82L90.73 20.82L90.73 22ZM97.38 22L94.92 22L94.92 13.47L97.44 13.47Q98.57 13.47 99.45 13.97Q100.33 14.48 100.81 15.40Q101.29 16.33 101.29 17.52L101.29 17.52L101.29 17.95Q101.29 19.16 100.80 20.08Q100.32 21.00 99.43 21.50Q98.53 22 97.38 22L97.38 22ZM96.41 14.66L96.41 20.82L97.37 20.82Q98.54 20.82 99.16 20.09Q99.79 19.36 99.80 17.99L99.80 17.99L99.80 17.52Q99.80 16.13 99.20 15.40Q98.59 14.66 97.44 14.66L97.44 14.66L96.41 14.66ZM113.11 22L111.14 13.47L112.61 13.47L113.94 19.88L115.57 13.47L116.81 13.47L118.42 19.89L119.73 13.47L121.20 13.47L119.23 22L117.82 22L116.19 15.77L114.54 22L113.11 22ZM126.84 22L125.36 22L125.36 13.47L126.84 13.47L126.84 22ZM133.33 14.66L130.70 14.66L130.70 13.47L137.46 13.47L137.46 14.66L134.80 14.66L134.80 22L133.33 22L133.33 14.66ZM142.70 22L141.22 22L141.22 13.47L142.70 13.47L142.70 17.02L146.52 17.02L146.52 13.47L147.99 13.47L147.99 22L146.52 22L146.52 18.21L142.70 18.21L142.70 22Z" fill="#FFFFFF"/><path class="svg__text" d="M176.78 22L174.40 22L174.40 13.60L178.24 13.60Q179.38 13.60 180.22 13.98Q181.06 14.35 181.52 15.06Q181.97 15.76 181.97 16.71L181.97 16.71Q181.97 17.66 181.52 18.35Q181.06 19.05 180.22 19.42Q179.38 19.80 178.24 19.80L178.24 19.80L176.78 19.80L176.78 22ZM176.78 15.47L176.78 17.93L178.10 17.93Q178.83 17.93 179.20 17.61Q179.57 17.29 179.57 16.71L179.57 16.71Q179.57 16.12 179.20 15.80Q178.83 15.47 178.10 15.47L178.10 15.47L176.78 15.47ZM188.14 22L185.72 22L189.43 13.60L191.77 13.60L195.49 22L193.02 22L192.36 20.37L188.81 20.37L188.14 22ZM190.58 15.93L189.50 18.61L191.66 18.61L190.58 15.93ZM199.21 17.80L199.21 17.80Q199.21 16.54 199.81 15.54Q200.41 14.55 201.46 13.99Q202.51 13.43 203.83 13.43L203.83 13.43Q204.98 13.43 205.91 13.84Q206.83 14.25 207.44 15.02L207.44 15.02L205.93 16.39Q205.12 15.40 203.95 15.40L203.95 15.40Q203.27 15.40 202.73 15.70Q202.20 16 201.90 16.54Q201.61 17.09 201.61 17.80L201.61 17.80Q201.61 18.51 201.90 19.05Q202.20 19.60 202.73 19.90Q203.27 20.20 203.95 20.20L203.95 20.20Q205.12 20.20 205.93 19.22L205.93 19.22L207.44 20.58Q206.84 21.35 205.91 21.76Q204.98 22.17 203.83 22.17L203.83 22.17Q202.51 22.17 201.46 21.61Q200.41 21.05 199.81 20.05Q199.21 19.06 199.21 17.80ZM214.34 22L211.98 22L211.98 13.60L214.34 13.60L214.34 17.09L217.59 13.60L220.20 13.60L216.77 17.32L220.38 22L217.62 22L215.22 18.95L214.34 19.90L214.34 22ZM231.23 22L224.49 22L224.49 13.60L231.08 13.60L231.08 15.44L226.85 15.44L226.85 16.85L230.58 16.85L230.58 18.63L226.85 18.63L226.85 20.17L231.23 20.17L231.23 22ZM237.83 15.48L235.25 15.48L235.25 13.60L242.77 13.60L242.77 15.48L240.20 15.48L240.20 22L237.83 22L237.83 15.48ZM255.91 15.48L253.32 15.48L253.32 13.60L260.85 13.60L260.85 15.48L258.28 15.48L258.28 22L255.91 22L255.91 15.48ZM267.60 22L265.22 22L265.22 13.60L269.06 13.60Q270.20 13.60 271.04 13.98Q271.88 14.35 272.34 15.06Q272.79 15.76 272.79 16.71L272.79 16.71Q272.79 17.62 272.37 18.30Q271.94 18.98 271.15 19.36L271.15 19.36L272.96 22L270.42 22L268.89 19.77L267.60 19.77L267.60 22ZM267.60 15.47L267.60 17.93L268.92 17.93Q269.65 17.93 270.02 17.61Q270.39 17.29 270.39 16.71L270.39 16.71Q270.39 16.12 270.02 15.79Q269.65 15.47 268.92 15.47L268.92 15.47L267.60 15.47ZM279.00 22L276.57 22L280.28 13.60L282.63 13.60L286.34 22L283.87 22L283.21 20.37L279.66 20.37L279.00 22ZM281.44 15.93L280.35 18.61L282.52 18.61L281.44 15.93ZM290.07 17.80L290.07 17.80Q290.07 16.54 290.67 15.54Q291.26 14.55 292.31 13.99Q293.37 13.43 294.69 13.43L294.69 13.43Q295.84 13.43 296.76 13.84Q297.69 14.25 298.30 15.02L298.30 15.02L296.79 16.39Q295.97 15.40 294.81 15.40L294.81 15.40Q294.12 15.40 293.59 15.70Q293.06 16 292.76 16.54Q292.46 17.09 292.46 17.80L292.46 17.80Q292.46 18.51 292.76 19.05Q293.06 19.60 293.59 19.90Q294.12 20.20 294.81 20.20L294.81 20.20Q295.97 20.20 296.79 19.22L296.79 19.22L298.30 20.58Q297.69 21.35 296.77 21.76Q295.84 22.17 294.69 22.17L294.69 22.17Q293.37 22.17 292.31 21.61Q291.26 21.05 290.67 20.05Q290.07 19.06 290.07 17.80ZM309.58 22L302.84 22L302.84 13.60L309.43 13.60L309.43 15.44L305.19 15.44L305.19 16.85L308.92 16.85L308.92 18.63L305.19 18.63L305.19 20.17L309.58 20.17L309.58 22ZM316.76 22L314.38 22L314.38 13.60L318.23 13.60Q319.37 13.60 320.21 13.98Q321.05 14.35 321.50 15.06Q321.96 15.76 321.96 16.71L321.96 16.71Q321.96 17.62 321.53 18.30Q321.10 18.98 320.31 19.36L320.31 19.36L322.12 22L319.58 22L318.06 19.77L316.76 19.77L316.76 22ZM316.76 15.47L316.76 17.93L318.08 17.93Q318.81 17.93 319.19 17.61Q319.56 17.29 319.56 16.71L319.56 16.71Q319.56 16.12 319.19 15.79Q318.81 15.47 318.08 15.47L318.08 15.47L316.76 15.47Z" fill="#FFFFFF" x="173.21"/></svg>